<?xml version="1.0" encoding="UTF-8"?>
<!DOCTYPE svg PUBLIC "-//W3C//DTD SVG 1.1//EN" "http://www.w3.org/Graphics/SVG/1.1/DTD/svg11.dtd">
<!-- Creator: CorelDRAW -->
<svg xmlns="http://www.w3.org/2000/svg" xml:space="preserve" width="2.54mm" height="2.54mm" version="1.1" style="shape-rendering:geometricPrecision; text-rendering:geometricPrecision; image-rendering:optimizeQuality; fill-rule:evenodd; clip-rule:evenodd"
viewBox="0 0 254 254"
 xmlns:xlink="http://www.w3.org/1999/xlink"
 xmlns:xodm="http://www.corel.com/coreldraw/odm/2003">
 <defs>
  <style type="text/css">
   <![CDATA[
    .fil6 {fill:none}
    .fil1 {fill:#3F87C1;fill-rule:nonzero}
    .fil5 {fill:#4999DB;fill-rule:nonzero}
    .fil0 {fill:#771A80;fill-rule:nonzero}
    .fil4 {fill:#8A1F95;fill-rule:nonzero}
    .fil2 {fill:#8C9C1C;fill-rule:nonzero}
    .fil3 {fill:#EF8C23;fill-rule:nonzero}
   ]]>
  </style>
   <clipPath id="id0">
    <path d="M-0 0l254 0 0 254 -254 0 0 -254z"/>
   </clipPath>
 </defs>
 <g id="Layer_x0020_1">
  <metadata id="CorelCorpID_0Corel-Layer"/>
  <g>
  </g>
  <g style="clip-path:url(#id0)">
   <g id="_2136662657136">
    <g>
     <path class="fil0" d="M203.17 248.38c-54.22,-26.68 -41.68,-61.46 -26.48,-95.57 -1.14,0.24 -2.29,0.36 -3.48,0.36 -9.77,0 -17.68,-7.94 -17.68,-17.68 0,-9.77 7.91,-17.71 17.68,-17.71 6.28,0 11.78,3.31 14.91,8.23 2.2,-5.98 3.91,-11.89 4.8,-17.63 4.42,-29.05 -25.47,-40.24 -43.54,-13.56 15.61,-44.75 62.19,-39.87 76.37,-14.11 27.94,50.65 -42.69,102.4 -22.58,167.67z"/>
     <path class="fil1" d="M186.75 249.2c-112.07,-32.35 -169.2,-79.24 -169.2,-146.85 0,-69.45 58.36,-87.11 80.55,-84.77 31.57,3.31 52.9,24.05 48.1,63.71 -8.37,-40.31 -53.89,-39.54 -70.51,-7.19 -7.38,14.33 -8.47,30.59 -4.22,46.1 3.06,-8.57 11.24,-14.69 20.84,-14.69 12.25,0 22.19,9.93 22.19,22.16 0,12.26 -9.94,22.17 -22.19,22.17 -2,0 -3.93,-0.29 -5.77,-0.77 6.54,8.01 14.79,15.15 24.56,20.79 57.58,33.27 32.13,53.07 75.65,79.34z"/>
     <path class="fil2" d="M236.44 49.25c-23,-28.74 -60.5,-34.48 -76.44,13.55 16.9,-19.7 51.39,-27.09 76.44,-13.55z"/>
     <path class="fil3" d="M154.06 53.59c5.88,-25.87 5.68,-52.48 -33.96,-48.39 21.13,9.15 31.6,33.57 33.96,48.39z"/>
     <path class="fil4" d="M208.38 133.29c-17.48,44 -40.23,90.41 -5.21,115.09 -54.22,-26.68 -41.68,-61.46 -26.48,-95.57 -1.14,0.24 -2.29,0.36 -3.48,0.36 -9.77,0 -17.68,-7.94 -17.68,-17.68 0,-9.77 7.91,-17.71 17.68,-17.71 6.28,0 11.78,3.31 14.91,8.23 2.2,-5.98 3.91,-11.89 4.8,-17.63 4.42,-29.05 -25.47,-40.24 -43.54,-13.56 14.04,-35.61 88.8,-36.35 59,38.47z"/>
     <path class="fil5" d="M186.75 249.2c-40.58,-22.16 -111.38,-58.45 -131.4,-101.26 -20.79,-44.44 -8.87,-87.76 17.54,-105.01 29.26,-19.1 71.76,-8.01 73.31,38.36 -8.37,-40.31 -53.89,-39.54 -70.51,-7.19 -7.38,14.33 -8.47,30.59 -4.22,46.1 3.06,-8.57 11.24,-14.69 20.84,-14.69 12.25,0 22.19,9.93 22.19,22.16 0,12.26 -9.94,22.17 -22.19,22.17 -2,0 -3.93,-0.29 -5.77,-0.77 6.54,8.01 14.79,15.15 24.56,20.79 57.58,33.27 32.13,53.07 75.65,79.34z"/>
    </g>
   </g>
  </g>
  <polygon class="fil6" points="-0,0 254,0 254,254 -0,254 "/>
 </g>
</svg>
